ffmpeg started on 2026-04-01 at 12:35:42
Report written to "D:\Convert\FFMetrics\reports\psnr_report-6.txt"
Log level: 32
Command line:
ffmpeg -hide_banner -nostdin -r 24000/1001 -i "F:\\Convert\\files\\[DC] Make Heroine ga Oosugiru - 07_Telegram_HEVC(289).mkv" -r 24000/1001 -i "F:\\Convert\\files\\[DC] Make Heroine ga Oosugiru - 07_Telegram.mp4" -lavfi "[0:v]settb=AVTB,setpts=PTS-STARTPTS,format=pix_fmts=yuv420p10le,fps=24000/1001,scale=1920:1080:flags=lanczos:param0=3:out_range=limited:out_color_matrix=bt709:out_chroma_loc=left,setsar=1/1,setdar=(1920/1080)*(1/1),colorspace=format=yuv420p10:range=tv:primaries=bt709:trc=bt709:space=bt709:fast=0[main];[1:v]settb=AVTB,setpts=PTS-STARTPTS,format=pix_fmts=yuv420p,fps=24000/1001,scale=1920:1080:flags=lanczos:param0=3:out_range=limited:out_color_matrix=bt709:out_chroma_loc=left,setsar=1/1,setdar=(1920/1080)*(1/1),colorspace=format=yuv420p:range=tv:primaries=bt709:trc=bt709:space=bt709:fast=0[ref];[main][ref]psnr=eof_action=endall:stats_file='D\\:/Convert/FFMetrics/logs/psnr_logfile-6.txt'" -f null -
Input #0, matroska,webm, from 'F:\Convert\files\[DC] Make Heroine ga Oosugiru - 07_Telegram_HEVC(289).mkv':
  Metadata:
    COMPATIBLE_BRANDS: isomiso2avc1mp41
    MAJOR_BRAND     : isom
    MINOR_VERSION   : 512
    ENCODER         : Lavf61.7.100
  Duration: 00:24:06.79, start: -0.021000, bitrate: 970 kb/s
  Stream #0:0: Video: hevc (Main 10), yuv420p10le(tv, bt709, progressive), 1920x1080 [SAR 1:1 DAR 16:9], 23.98 fps, 23.98 tbr, 1k tbn (default)
      Metadata:
        HANDLER_NAME    : VideoHandler
        VENDOR_ID       : [0][0][0][0]
        ENCODER         : Lavc61.19.100 libx265
        BPS             : 773483
        DURATION        : 00:24:06.569708333
        NUMBER_OF_FRAMES: 34683
        NUMBER_OF_BYTES : 139862135
        _STATISTICS_WRITING_APP: mkvpropedit v94.0 ('Initiate') 64-bit
        _STATISTICS_WRITING_DATE_UTC: 2026-03-30 16:19:33
        _STATISTICS_TAGS: BPS DURATION NUMBER_OF_FRAMES NUMBER_OF_BYTES
  Stream #0:1: Audio: aac (LC), 48000 Hz, stereo, fltp (default)
      Metadata:
        HANDLER_NAME    : SoundHandler
        VENDOR_ID       : [0][0][0][0]
        ENCODER         : Lavc61.19.100 aac
        BPS             : 193194
        DURATION        : 00:24:06.784000000
        NUMBER_OF_FRAMES: 67819
        NUMBER_OF_BYTES : 34938755
        _STATISTICS_WRITING_APP: mkvpropedit v94.0 ('Initiate') 64-bit
        _STATISTICS_WRITING_DATE_UTC: 2026-03-30 16:19:33
        _STATISTICS_TAGS: BPS DURATION NUMBER_OF_FRAMES NUMBER_OF_BYTES
Input #1, mov,mp4,m4a,3gp,3g2,mj2, from 'F:\Convert\files\[DC] Make Heroine ga Oosugiru - 07_Telegram.mp4':
  Metadata:
    major_brand     : isom
    minor_version   : 512
    compatible_brands: isomiso2avc1mp41
    encoder         : Lavf60.16.100
  Duration: 00:24:06.74, start: 0.000000, bitrate: 3764 kb/s
  Stream #1:0[0x1](und): Video: h264 (High) (avc1 / 0x31637661), yuv420p(tv, bt709, progressive), 1920x1080 [SAR 1:1 DAR 16:9], 3616 kb/s, 23.98 fps, 23.98 tbr, 24k tbn (default)
      Metadata:
        handler_name    : VideoHandler
        vendor_id       : [0][0][0][0]
        encoder         : Lavc60.31.102 h264_qsv
  Stream #1:1[0x2](und): Audio: aac (HE-AACv2) (mp4a / 0x6134706D), 48000 Hz, stereo, fltp, 144 kb/s (default)
      Metadata:
        handler_name    : SoundHandler
        vendor_id       : [0][0][0][0]
Stream mapping:
  Stream #0:0 (hevc) -> settb:default
  Stream #1:0 (h264) -> settb:default
  psnr:default -> Stream #0:0 (wrapped_avframe)
  Stream #0:1 -> #0:1 (aac (native) -> pcm_s16le (native))
Output #0, null, to 'pipe:':
  Metadata:
    COMPATIBLE_BRANDS: isomiso2avc1mp41
    MAJOR_BRAND     : isom
    MINOR_VERSION   : 512
    encoder         : Lavf61.7.100
  Stream #0:0: Video: wrapped_avframe, yuv420p10le(tv, bt709, progressive), 1920x1080 [SAR 1:1 DAR 16:9], q=2-31, 200 kb/s, 23.98 fps, 23.98 tbn
      Metadata:
        encoder         : Lavc61.19.100 wrapped_avframe
  Stream #0:1: Audio: pcm_s16le, 48000 Hz, stereo, s16, 1536 kb/s (default)
      Metadata:
        HANDLER_NAME    : SoundHandler
        VENDOR_ID       : [0][0][0][0]
        _STATISTICS_TAGS: BPS DURATION NUMBER_OF_FRAMES NUMBER_OF_BYTES
        BPS             : 193194
        DURATION        : 00:24:06.784000000
        NUMBER_OF_FRAMES: 67819
        NUMBER_OF_BYTES : 34938755
        _STATISTICS_WRITING_APP: mkvpropedit v94.0 ('Initiate') 64-bit
        _STATISTICS_WRITING_DATE_UTC: 2026-03-30 16:19:33
        encoder         : Lavc61.19.100 pcm_s16le
frame=  113 fps=0.0 q=-0.0 size=N/A time=00:00:04.71 bitrate=N/A speed=9.19x    frame=  278 fps=270 q=-0.0 size=N/A time=00:00:11.59 bitrate=N/A speed=11.3x    frame=  450 fps=291 q=-0.0 size=N/A time=00:00:18.76 bitrate=N/A speed=12.1x    frame=  621 fps=301 q=-0.0 size=N/A time=00:00:25.90 bitrate=N/A speed=12.5x    frame=  796 fps=308 q=-0.0 size=N/A time=00:00:33.19 bitrate=N/A speed=12.8x    frame=  933 fps=301 q=-0.0 size=N/A time=00:00:38.91 bitrate=N/A speed=12.5x    frame= 1079 fps=298 q=-0.0 size=N/A time=00:00:45.00 bitrate=N/A speed=12.4x    frame= 1222 fps=295 q=-0.0 size=N/A time=00:00:50.96 bitrate=N/A speed=12.3x    frame= 1386 fps=298 q=-0.0 size=N/A time=00:00:57.80 bitrate=N/A speed=12.4x    frame= 1532 fps=297 q=-0.0 size=N/A time=00:01:03.89 bitrate=N/A speed=12.4x    frame= 1674 fps=294 q=-0.0 size=N/A time=00:01:09.81 bitrate=N/A speed=12.3x    frame= 1830 fps=295 q=-0.0 size=N/A time=00:01:16.32 bitrate=N/A speed=12.3x    frame= 1996 fps=297 q=-0.0 size=N/A time=00:01:23.24 bitrate=N/A speed=12.4x    frame= 2099 fps=290 q=-0.0 size=N/A time=00:01:27.54 bitrate=N/A speed=12.1x    frame= 2244 fps=290 q=-0.0 size=N/A time=00:01:33.59 bitrate=N/A speed=12.1x    frame= 2386 fps=289 q=-0.0 size=N/A time=00:01:39.51 bitrate=N/A speed=  12x    frame= 2521 fps=287 q=-0.0 size=N/A time=00:01:45.14 bitrate=N/A speed=  12x    frame= 2663 fps=286 q=-0.0 size=N/A time=00:01:51.06 bitrate=N/A speed=11.9x    frame= 2835 fps=289 q=-0.0 size=N/A time=00:01:58.24 bitrate=N/A speed=  12x    frame= 3006 fps=291 q=-0.0 size=N/A time=00:02:05.37 bitrate=N/A speed=12.1x    frame= 3194 fps=294 q=-0.0 size=N/A time=00:02:13.21 bitrate=N/A speed=12.3x    frame= 3393 fps=298 q=-0.0 size=N/A time=00:02:21.51 bitrate=N/A speed=12.4x    frame= 3575 fps=300 q=-0.0 size=N/A time=00:02:29.10 bitrate=N/A speed=12.5x    frame= 3761 fps=303 q=-0.0 size=N/A time=00:02:36.86 bitrate=N/A speed=12.6x    frame= 3941 fps=305 q=-0.0 size=N/A time=00:02:44.37 bitrate=N/A speed=12.7x    frame= 4132 fps=307 q=-0.0 size=N/A time=00:02:52.33 bitrate=N/A speed=12.8x    frame= 4309 fps=309 q=-0.0 size=N/A time=00:02:59.72 bitrate=N/A speed=12.9x    frame= 4477 fps=309 q=-0.0 size=N/A time=00:03:06.72 bitrate=N/A speed=12.9x    frame= 4666 fps=311 q=-0.0 size=N/A time=00:03:14.61 bitrate=N/A speed=  13x    frame= 4856 fps=313 q=-0.0 size=N/A time=00:03:22.53 bitrate=N/A speed=  13x    frame= 5038 fps=314 q=-0.0 size=N/A time=00:03:30.12 bitrate=N/A speed=13.1x    frame= 5219 fps=315 q=-0.0 size=N/A time=00:03:37.67 bitrate=N/A speed=13.1x    frame= 5403 fps=316 q=-0.0 size=N/A time=00:03:45.35 bitrate=N/A speed=13.2x    frame= 5577 fps=317 q=-0.0 size=N/A time=00:03:52.60 bitrate=N/A speed=13.2x    frame= 5774 fps=319 q=-0.0 size=N/A time=00:04:00.82 bitrate=N/A speed=13.3x    frame= 5954 fps=320 q=-0.0 size=N/A time=00:04:08.33 bitrate=N/A speed=13.3x    frame= 6141 fps=321 q=-0.0 size=N/A time=00:04:16.13 bitrate=N/A speed=13.4x    frame= 6326 fps=322 q=-0.0 size=N/A time=00:04:23.84 bitrate=N/A speed=13.4x    frame= 6521 fps=323 q=-0.0 size=N/A time=00:04:31.98 bitrate=N/A speed=13.5x    frame= 6714 fps=324 q=-0.0 size=N/A time=00:04:40.02 bitrate=N/A speed=13.5x    frame= 6893 fps=325 q=-0.0 size=N/A time=00:04:47.49 bitrate=N/A speed=13.6x    frame= 7078 fps=326 q=-0.0 size=N/A time=00:04:55.21 bitrate=N/A speed=13.6x    frame= 7258 fps=326 q=-0.0 size=N/A time=00:05:02.71 bitrate=N/A speed=13.6x    frame= 7430 fps=327 q=-0.0 size=N/A time=00:05:09.89 bitrate=N/A speed=13.6x    frame= 7605 fps=327 q=-0.0 size=N/A time=00:05:17.19 bitrate=N/A speed=13.6x    frame= 7781 fps=327 q=-0.0 size=N/A time=00:05:24.53 bitrate=N/A speed=13.6x    frame= 7959 fps=328 q=-0.0 size=N/A time=00:05:31.95 bitrate=N/A speed=13.7x    frame= 8141 fps=328 q=-0.0 size=N/A time=00:05:39.54 bitrate=N/A speed=13.7x    frame= 8327 fps=329 q=-0.0 size=N/A time=00:05:47.30 bitrate=N/A speed=13.7x    frame= 8509 fps=329 q=-0.0 size=N/A time=00:05:54.89 bitrate=N/A speed=13.7x    frame= 8696 fps=330 q=-0.0 size=N/A time=00:06:02.69 bitrate=N/A speed=13.8x    frame= 8879 fps=330 q=-0.0 size=N/A time=00:06:10.32 bitrate=N/A speed=13.8x    frame= 9057 fps=331 q=-0.0 size=N/A time=00:06:17.75 bitrate=N/A speed=13.8x    frame= 9249 fps=331 q=-0.0 size=N/A time=00:06:25.76 bitrate=N/A speed=13.8x    frame= 9427 fps=332 q=-0.0 size=N/A time=00:06:33.18 bitrate=N/A speed=13.8x    frame= 9616 fps=332 q=-0.0 size=N/A time=00:06:41.06 bitrate=N/A speed=13.9x    frame= 9798 fps=333 q=-0.0 size=N/A time=00:06:48.65 bitrate=N/A speed=13.9x    frame= 9973 fps=333 q=-0.0 size=N/A time=00:06:55.95 bitrate=N/A speed=13.9x    frame=10161 fps=333 q=-0.0 size=N/A time=00:07:03.79 bitrate=N/A speed=13.9x    frame=10345 fps=334 q=-0.0 size=N/A time=00:07:11.47 bitrate=N/A speed=13.9x    frame=10522 fps=334 q=-0.0 size=N/A time=00:07:18.85 bitrate=N/A speed=13.9x    frame=10709 fps=334 q=-0.0 size=N/A time=00:07:26.65 bitrate=N/A speed=13.9x    frame=10890 fps=335 q=-0.0 size=N/A time=00:07:34.20 bitrate=N/A speed=  14x    frame=11080 fps=335 q=-0.0 size=N/A time=00:07:42.12 bitrate=N/A speed=  14x    frame=11255 fps=335 q=-0.0 size=N/A time=00:07:49.42 bitrate=N/A speed=  14x    frame=11433 fps=335 q=-0.0 size=N/A time=00:07:56.85 bitrate=N/A speed=  14x    frame=11622 fps=336 q=-0.0 size=N/A time=00:08:04.73 bitrate=N/A speed=  14x    frame=11795 fps=336 q=-0.0 size=N/A time=00:08:11.94 bitrate=N/A speed=  14x    frame=11981 fps=336 q=-0.0 size=N/A time=00:08:19.70 bitrate=N/A speed=  14x    frame=12157 fps=336 q=-0.0 size=N/A time=00:08:27.04 bitrate=N/A speed=  14x    frame=12347 fps=337 q=-0.0 size=N/A time=00:08:34.97 bitrate=N/A speed=  14x    frame=12520 fps=337 q=-0.0 size=N/A time=00:08:42.18 bitrate=N/A speed=  14x    frame=12701 fps=337 q=-0.0 size=N/A time=00:08:49.73 bitrate=N/A speed=14.1x    frame=12879 fps=337 q=-0.0 size=N/A time=00:08:57.16 bitrate=N/A speed=14.1x    frame=13059 fps=337 q=-0.0 size=N/A time=00:09:04.66 bitrate=N/A speed=14.1x    frame=13244 fps=337 q=-0.0 size=N/A time=00:09:12.38 bitrate=N/A speed=14.1x    frame=13420 fps=337 q=-0.0 size=N/A time=00:09:19.72 bitrate=N/A speed=14.1x    frame=13604 fps=338 q=-0.0 size=N/A time=00:09:27.40 bitrate=N/A speed=14.1x    frame=13796 fps=338 q=-0.0 size=N/A time=00:09:35.40 bitrate=N/A speed=14.1x    frame=13982 fps=338 q=-0.0 size=N/A time=00:09:43.16 bitrate=N/A speed=14.1x    frame=14144 fps=338 q=-0.0 size=N/A time=00:09:49.92 bitrate=N/A speed=14.1x    frame=14336 fps=339 q=-0.0 size=N/A time=00:09:57.93 bitrate=N/A speed=14.1x    frame=14510 fps=339 q=-0.0 size=N/A time=00:10:05.18 bitrate=N/A speed=14.1x    frame=14691 fps=339 q=-0.0 size=N/A time=00:10:12.73 bitrate=N/A speed=14.1x    frame=14870 fps=339 q=-0.0 size=N/A time=00:10:20.20 bitrate=N/A speed=14.1x    frame=15060 fps=339 q=-0.0 size=N/A time=00:10:28.12 bitrate=N/A speed=14.1x    frame=15222 fps=339 q=-0.0 size=N/A time=00:10:34.88 bitrate=N/A speed=14.1x    frame=15398 fps=339 q=-0.0 size=N/A time=00:10:42.22 bitrate=N/A speed=14.1x    frame=15586 fps=339 q=-0.0 size=N/A time=00:10:50.06 bitrate=N/A speed=14.1x    frame=15773 fps=339 q=-0.0 size=N/A time=00:10:57.86 bitrate=N/A speed=14.2x    frame=15958 fps=340 q=-0.0 size=N/A time=00:11:05.58 bitrate=N/A speed=14.2x    frame=16152 fps=340 q=-0.0 size=N/A time=00:11:13.67 bitrate=N/A speed=14.2x    frame=16344 fps=340 q=-0.0 size=N/A time=00:11:21.68 bitrate=N/A speed=14.2x    frame=16527 fps=340 q=-0.0 size=N/A time=00:11:29.31 bitrate=N/A speed=14.2x    frame=16712 fps=341 q=-0.0 size=N/A time=00:11:37.02 bitrate=N/A speed=14.2x    frame=16905 fps=341 q=-0.0 size=N/A time=00:11:45.07 bitrate=N/A speed=14.2x    frame=17090 fps=341 q=-0.0 size=N/A time=00:11:52.79 bitrate=N/A speed=14.2x    frame=17278 fps=341 q=-0.0 size=N/A time=00:12:00.63 bitrate=N/A speed=14.2x    frame=17460 fps=342 q=-0.0 size=N/A time=00:12:08.22 bitrate=N/A speed=14.2x    frame=17644 fps=342 q=-0.0 size=N/A time=00:12:15.90 bitrate=N/A speed=14.2x    frame=17820 fps=342 q=-0.0 size=N/A time=00:12:23.24 bitrate=N/A speed=14.3x    frame=18015 fps=342 q=-0.0 size=N/A time=00:12:31.37 bitrate=N/A speed=14.3x    frame=18199 fps=342 q=-0.0 size=N/A time=00:12:39.04 bitrate=N/A speed=14.3x    frame=18363 fps=342 q=-0.0 size=N/A time=00:12:45.89 bitrate=N/A speed=14.3x    frame=18547 fps=342 q=-0.0 size=N/A time=00:12:53.56 bitrate=N/A speed=14.3x    frame=18732 fps=342 q=-0.0 size=N/A time=00:13:01.28 bitrate=N/A speed=14.3x    frame=18918 fps=342 q=-0.0 size=N/A time=00:13:09.03 bitrate=N/A speed=14.3x    frame=19106 fps=343 q=-0.0 size=N/A time=00:13:16.87 bitrate=N/A speed=14.3x    frame=19289 fps=343 q=-0.0 size=N/A time=00:13:24.51 bitrate=N/A speed=14.3x    frame=19483 fps=343 q=-0.0 size=N/A time=00:13:32.60 bitrate=N/A speed=14.3x    frame=19669 fps=343 q=-0.0 size=N/A time=00:13:40.36 bitrate=N/A speed=14.3x    frame=19866 fps=343 q=-0.0 size=N/A time=00:13:48.57 bitrate=N/A speed=14.3x    frame=20060 fps=344 q=-0.0 size=N/A time=00:13:56.66 bitrate=N/A speed=14.3x    frame=20249 fps=344 q=-0.0 size=N/A time=00:14:04.55 bitrate=N/A speed=14.3x    frame=20426 fps=344 q=-0.0 size=N/A time=00:14:11.93 bitrate=N/A speed=14.3x    frame=20602 fps=344 q=-0.0 size=N/A time=00:14:19.27 bitrate=N/A speed=14.3x    frame=20786 fps=344 q=-0.0 size=N/A time=00:14:26.94 bitrate=N/A speed=14.4x    frame=20973 fps=344 q=-0.0 size=N/A time=00:14:34.74 bitrate=N/A speed=14.4x    frame=21156 fps=344 q=-0.0 size=N/A time=00:14:42.38 bitrate=N/A speed=14.4x    frame=21341 fps=344 q=-0.0 size=N/A time=00:14:50.09 bitrate=N/A speed=14.4x    frame=21524 fps=345 q=-0.0 size=N/A time=00:14:57.73 bitrate=N/A speed=14.4x    frame=21711 fps=345 q=-0.0 size=N/A time=00:15:05.52 bitrate=N/A speed=14.4x    frame=21903 fps=345 q=-0.0 size=N/A time=00:15:13.53 bitrate=N/A speed=14.4x    frame=22090 fps=345 q=-0.0 size=N/A time=00:15:21.33 bitrate=N/A speed=14.4x    frame=22285 fps=345 q=-0.0 size=N/A time=00:15:29.47 bitrate=N/A speed=14.4x    frame=22475 fps=346 q=-0.0 size=N/A time=00:15:37.39 bitrate=N/A speed=14.4x    frame=22671 fps=346 q=-0.0 size=N/A time=00:15:45.56 bitrate=N/A speed=14.4x    frame=22863 fps=346 q=-0.0 size=N/A time=00:15:53.57 bitrate=N/A speed=14.4x    frame=23049 fps=346 q=-0.0 size=N/A time=00:16:01.33 bitrate=N/A speed=14.4x    frame=23243 fps=346 q=-0.0 size=N/A time=00:16:09.42 bitrate=N/A speed=14.4x    frame=23433 fps=346 q=-0.0 size=N/A time=00:16:17.35 bitrate=N/A speed=14.4x    frame=23629 fps=347 q=-0.0 size=N/A time=00:16:25.52 bitrate=N/A speed=14.5x    frame=23814 fps=347 q=-0.0 size=N/A time=00:16:33.24 bitrate=N/A speed=14.5x    frame=24015 fps=347 q=-0.0 size=N/A time=00:16:41.62 bitrate=N/A speed=14.5x    frame=24205 fps=347 q=-0.0 size=N/A time=00:16:49.55 bitrate=N/A speed=14.5x    frame=24397 fps=347 q=-0.0 size=N/A time=00:16:57.55 bitrate=N/A speed=14.5x    frame=24581 fps=348 q=-0.0 size=N/A time=00:17:05.23 bitrate=N/A speed=14.5x    frame=24775 fps=348 q=-0.0 size=N/A time=00:17:13.32 bitrate=N/A speed=14.5x    frame=24970 fps=348 q=-0.0 size=N/A time=00:17:21.45 bitrate=N/A speed=14.5x    frame=25159 fps=348 q=-0.0 size=N/A time=00:17:29.33 bitrate=N/A speed=14.5x    frame=25345 fps=348 q=-0.0 size=N/A time=00:17:37.09 bitrate=N/A speed=14.5x    frame=25538 fps=348 q=-0.0 size=N/A time=00:17:45.14 bitrate=N/A speed=14.5x    frame=25724 fps=348 q=-0.0 size=N/A time=00:17:52.90 bitrate=N/A speed=14.5x    frame=25907 fps=348 q=-0.0 size=N/A time=00:18:00.53 bitrate=N/A speed=14.5x    frame=26100 fps=349 q=-0.0 size=N/A time=00:18:08.58 bitrate=N/A speed=14.5x    frame=26294 fps=349 q=-0.0 size=N/A time=00:18:16.67 bitrate=N/A speed=14.5x    frame=26489 fps=349 q=-0.0 size=N/A time=00:18:24.81 bitrate=N/A speed=14.6x    frame=26681 fps=349 q=-0.0 size=N/A time=00:18:32.82 bitrate=N/A speed=14.6x    frame=26868 fps=349 q=-0.0 size=N/A time=00:18:40.61 bitrate=N/A speed=14.6x    frame=27040 fps=349 q=-0.0 size=N/A time=00:18:47.79 bitrate=N/A speed=14.6x    frame=27218 fps=349 q=-0.0 size=N/A time=00:18:55.21 bitrate=N/A speed=14.6x    frame=27401 fps=349 q=-0.0 size=N/A time=00:19:02.85 bitrate=N/A speed=14.6x    frame=27586 fps=349 q=-0.0 size=N/A time=00:19:10.56 bitrate=N/A speed=14.6x    frame=27775 fps=349 q=-0.0 size=N/A time=00:19:18.44 bitrate=N/A speed=14.6x    frame=27958 fps=349 q=-0.0 size=N/A time=00:19:26.08 bitrate=N/A speed=14.6x    frame=28148 fps=349 q=-0.0 size=N/A time=00:19:34.00 bitrate=N/A speed=14.6x    frame=28334 fps=350 q=-0.0 size=N/A time=00:19:41.76 bitrate=N/A speed=14.6x    frame=28516 fps=350 q=-0.0 size=N/A time=00:19:49.35 bitrate=N/A speed=14.6x    frame=28702 fps=350 q=-0.0 size=N/A time=00:19:57.11 bitrate=N/A speed=14.6x    frame=28865 fps=350 q=-0.0 size=N/A time=00:20:03.91 bitrate=N/A speed=14.6x    frame=29035 fps=349 q=-0.0 size=N/A time=00:20:11.00 bitrate=N/A speed=14.6x    frame=29188 fps=349 q=-0.0 size=N/A time=00:20:17.38 bitrate=N/A speed=14.6x    frame=29364 fps=349 q=-0.0 size=N/A time=00:20:24.72 bitrate=N/A speed=14.6x    frame=29526 fps=349 q=-0.0 size=N/A time=00:20:31.48 bitrate=N/A speed=14.5x    frame=29694 fps=349 q=-0.0 size=N/A time=00:20:38.48 bitrate=N/A speed=14.5x    frame=29856 fps=348 q=-0.0 size=N/A time=00:20:45.24 bitrate=N/A speed=14.5x    frame=30016 fps=348 q=-0.0 size=N/A time=00:20:51.91 bitrate=N/A speed=14.5x    frame=30187 fps=348 q=-0.0 size=N/A time=00:20:59.04 bitrate=N/A speed=14.5x    frame=30369 fps=348 q=-0.0 size=N/A time=00:21:06.64 bitrate=N/A speed=14.5x    frame=30562 fps=348 q=-0.0 size=N/A time=00:21:14.69 bitrate=N/A speed=14.5x    frame=30742 fps=348 q=-0.0 size=N/A time=00:21:22.19 bitrate=N/A speed=14.5x    frame=30922 fps=348 q=-0.0 size=N/A time=00:21:29.70 bitrate=N/A speed=14.5x    frame=31106 fps=348 q=-0.0 size=N/A time=00:21:37.37 bitrate=N/A speed=14.5x    frame=31270 fps=348 q=-0.0 size=N/A time=00:21:44.21 bitrate=N/A speed=14.5x    frame=31442 fps=348 q=-0.0 size=N/A time=00:21:51.39 bitrate=N/A speed=14.5x    frame=31625 fps=348 q=-0.0 size=N/A time=00:21:59.02 bitrate=N/A speed=14.5x    frame=31791 fps=348 q=-0.0 size=N/A time=00:22:05.94 bitrate=N/A speed=14.5x    frame=31949 fps=348 q=-0.0 size=N/A time=00:22:12.53 bitrate=N/A speed=14.5x    frame=32101 fps=347 q=-0.0 size=N/A time=00:22:18.87 bitrate=N/A speed=14.5x    frame=32267 fps=347 q=-0.0 size=N/A time=00:22:25.80 bitrate=N/A speed=14.5x    frame=32451 fps=347 q=-0.0 size=N/A time=00:22:33.47 bitrate=N/A speed=14.5x    frame=32627 fps=347 q=-0.0 size=N/A time=00:22:40.81 bitrate=N/A speed=14.5x    frame=32768 fps=347 q=-0.0 size=N/A time=00:22:46.69 bitrate=N/A speed=14.5x    frame=32928 fps=347 q=-0.0 size=N/A time=00:22:53.37 bitrate=N/A speed=14.5x    frame=33106 fps=347 q=-0.0 size=N/A time=00:23:00.79 bitrate=N/A speed=14.5x    frame=33280 fps=347 q=-0.0 size=N/A time=00:23:08.05 bitrate=N/A speed=14.5x    frame=33454 fps=346 q=-0.0 size=N/A time=00:23:15.31 bitrate=N/A speed=14.5x    frame=33594 fps=346 q=-0.0 size=N/A time=00:23:21.14 bitrate=N/A speed=14.4x    frame=33743 fps=346 q=-0.0 size=N/A time=00:23:27.36 bitrate=N/A speed=14.4x    frame=33862 fps=345 q=-0.0 size=N/A time=00:23:32.32 bitrate=N/A speed=14.4x    frame=34015 fps=345 q=-0.0 size=N/A time=00:23:38.70 bitrate=N/A speed=14.4x    frame=34174 fps=345 q=-0.0 size=N/A time=00:23:45.34 bitrate=N/A speed=14.4x    frame=34323 fps=344 q=-0.0 size=N/A time=00:23:51.55 bitrate=N/A speed=14.4x    frame=34443 fps=344 q=-0.0 size=N/A time=00:23:56.56 bitrate=N/A speed=14.3x    frame=34614 fps=344 q=-0.0 size=N/A time=00:24:03.69 bitrate=N/A speed=14.3x    [Parsed_psnr_16 @ 0000026aeacb5380] PSNR y:48.956891 u:50.327081 v:50.382741 average:49.374787 min:37.950881 max:inf
[out#0/null @ 0000026ade06dec0] video:14903KiB audio:271276KiB subtitle:0KiB other streams:0KiB global headers:0KiB muxing overhead: unknown
frame=34683 fps=344 q=-0.0 Lsize=N/A time=00:24:06.57 bitrate=N/A speed=14.3x    
